<svg width="97" height="25" viewBox="0 0 97 25" fill="none" xmlns="http://www.w3.org/2000/svg">
<path d="M17.7734 20H15.2148V11.6602L10.7129 19.5801C10.6022 19.7819 10.4459 19.9349 10.2441 20.0391C10.0488 20.1432 9.83721 20.1953 9.60934 20.1953C9.38799 20.1953 9.17966 20.1432 8.98434 20.0391C8.79554 19.9349 8.6458 19.7819 8.53513 19.5801L4.01364 11.6602V20H1.47458V7.08008C1.47458 6.78711 1.55921 6.52669 1.72849 6.29883C1.90427 6.07096 2.13213 5.91797 2.41208 5.83984C2.5488 5.80729 2.68552 5.79753 2.82224 5.81055C2.95895 5.81706 3.08916 5.84635 3.21286 5.89844C3.34307 5.94401 3.46026 6.01237 3.56442 6.10352C3.66859 6.18815 3.75648 6.29232 3.82809 6.41602L9.60934 16.4648L15.3906 6.41602C15.5403 6.16862 15.7454 5.99284 16.0058 5.88867C16.2728 5.78451 16.5494 5.76823 16.8359 5.83984C17.1093 5.91797 17.334 6.07096 17.5097 6.29883C17.6855 6.52669 17.7734 6.78711 17.7734 7.08008V20ZM35.4297 14.3359C35.4297 15.1888 35.2832 15.9733 34.9902 16.6895C34.6972 17.4056 34.2903 18.0241 33.7695 18.5449C33.2487 19.0658 32.6302 19.4727 31.914 19.7656C31.2044 20.0521 30.4297 20.1953 29.5898 20.1953H26.1523C25.3125 20.1953 24.5345 20.0521 23.8183 19.7656C23.1022 19.4727 22.4837 19.0658 21.9629 18.5449C21.442 18.0241 21.0319 17.4056 20.7324 16.6895C20.4394 15.9733 20.2929 15.1888 20.2929 14.3359V11.6602C20.2929 10.8138 20.4394 10.0326 20.7324 9.31641C21.0319 8.59375 21.442 7.97526 21.9629 7.46094C22.4837 6.9401 23.1022 6.5332 23.8183 6.24023C24.5345 5.94727 25.3125 5.80078 26.1523 5.80078H29.5898C30.4297 5.80078 31.2044 5.94727 31.914 6.24023C32.6302 6.5332 33.2487 6.9401 33.7695 7.46094C34.2903 7.97526 34.6972 8.59375 34.9902 9.31641C35.2832 10.0326 35.4297 10.8138 35.4297 11.6602V14.3359ZM32.8906 11.6602C32.8906 11.1589 32.8092 10.7064 32.6465 10.3027C32.4902 9.89258 32.2656 9.54427 31.9726 9.25781C31.6862 8.96484 31.3379 8.74023 30.9277 8.58398C30.5241 8.42122 30.0781 8.33984 29.5898 8.33984H26.1523C25.6575 8.33984 25.205 8.42122 24.7949 8.58398C24.3912 8.74023 24.0429 8.96484 23.75 9.25781C23.457 9.54427 23.2291 9.89258 23.0664 10.3027C22.9101 10.7064 22.832 11.1589 22.832 11.6602V14.3359C22.832 14.8372 22.9101 15.293 23.0664 15.7031C23.2291 16.1068 23.457 16.4551 23.75 16.748C24.0429 17.0345 24.3912 17.2591 24.7949 17.4219C25.205 17.5781 25.6575 17.6562 26.1523 17.6562H29.5703C30.0651 17.6562 30.5143 17.5781 30.9179 17.4219C31.3281 17.2591 31.6797 17.0345 31.9726 16.748C32.2656 16.4551 32.4902 16.1068 32.6465 15.7031C32.8092 15.293 32.8906 14.8372 32.8906 14.3359V11.6602ZM49.1406 16.4355C49.1406 16.8717 49.0853 17.2656 48.9746 17.6172C48.8639 17.9622 48.7174 18.2682 48.5351 18.5352C48.3528 18.7956 48.1412 19.0202 47.9004 19.209C47.6595 19.3913 47.4056 19.541 47.1386 19.6582C46.8782 19.7754 46.6113 19.8633 46.3379 19.9219C46.0709 19.974 45.817 20 45.5761 20H40.9961C40.6445 20 40.2604 19.9382 39.8437 19.8145C39.4271 19.6908 39.0397 19.4889 38.6816 19.209C38.33 18.9225 38.0338 18.5547 37.7929 18.1055C37.5586 17.6497 37.4414 17.0931 37.4414 16.4355V12.998C37.4414 12.347 37.5586 11.7969 37.7929 11.3477C38.0338 10.8919 38.33 10.5241 38.6816 10.2441C39.0397 9.95768 39.4271 9.7526 39.8437 9.62891C40.2604 9.50521 40.6445 9.44336 40.9961 9.44336H45.5761C46.2272 9.44336 46.7806 9.56055 47.2363 9.79492C47.692 10.0293 48.0599 10.3255 48.3398 10.6836C48.6198 11.0352 48.8216 11.4193 48.9453 11.8359C49.0755 12.2526 49.1406 12.64 49.1406 12.998V16.4355ZM46.6015 13.0176C46.6015 12.666 46.5136 12.4056 46.3379 12.2363C46.1621 12.0671 45.9082 11.9824 45.5761 11.9824H41.0156C40.6771 11.9824 40.4199 12.0703 40.2441 12.2461C40.0683 12.4154 39.9804 12.666 39.9804 12.998V16.4355C39.9804 16.7676 40.0683 17.0215 40.2441 17.1973C40.4199 17.373 40.6771 17.4609 41.0156 17.4609H45.5761C45.9212 17.4609 46.1784 17.373 46.3476 17.1973C46.5169 17.0215 46.6015 16.7676 46.6015 16.4355V13.0176ZM65.5859 18.916C65.5859 19.0983 65.5501 19.2676 65.4785 19.4238C65.4134 19.5801 65.3222 19.7168 65.205 19.834C65.0944 19.9447 64.9609 20.0326 64.8047 20.0977C64.6484 20.1628 64.4824 20.1953 64.3066 20.1953C64.1504 20.1953 63.9909 20.166 63.8281 20.1074C63.6718 20.0488 63.5319 19.9544 63.4082 19.8242L54.1308 10.1367V20H51.5918V7.08008C51.5918 6.81966 51.6634 6.58529 51.8066 6.37695C51.9563 6.16211 52.1452 6.0026 52.373 5.89844C52.6139 5.80078 52.8613 5.77799 53.1152 5.83008C53.3691 5.87565 53.5872 5.99284 53.7695 6.18164L63.0468 15.8594V5.99609H65.5859V18.916ZM80.1269 14.2773H72.0996V11.7188H80.1269V14.2773ZM81.2597 8.53516H71.084V20H68.5449V7.27539C68.5449 7.09961 68.5774 6.93359 68.6425 6.77734C68.7077 6.62109 68.7955 6.48438 68.9062 6.36719C69.0234 6.25 69.1601 6.15885 69.3164 6.09375C69.4726 6.02865 69.6419 5.99609 69.8242 5.99609H81.2597V8.53516ZM95.9668 8.53516H90.3711V20H87.832V8.53516H82.2265V5.99609H95.9668V8.53516Z" fill="url(#paint0_linear_207_143)"/>
<defs>
<linearGradient id="paint0_linear_207_143" x1="48.5" y1="0" x2="48.5" y2="25" gradientUnits="userSpaceOnUse">
<stop offset="0.182292" stop-color="#FEE89A"/>
<stop offset="0.833333" stop-color="#F89EE0"/>
</linearGradient>
</defs>
</svg>
